ply
format ascii 1.0
comment Created in Blender version 4.5.1 LTS
element vertex 325
property float x
property float y
property float z
property float s
property float t
element face 97
property list uchar uint vertex_indices
end_header
-1.1140897 0.25000003 -0.4884433 0.06097561 0
-0.7189446 0.25 -0.08781005 1 0
-0.512056 0.25 -0.087734625 0.09779671 0
-0.11799474 0.25000003 -0.4884433 0 0
-0.4074934 0.25000003 -0.4884433 0.0121951215 0
-0.45551455 0.25 -0.30459103 0.024390243 0
-0.7738259 0.25 -0.30459103 0.036585364 0
-0.82321906 0.25000003 -0.4884433 0.048780486 0
-1.2197361 -0.24999999 -0.4884433 0.09090909 0
-1.2197361 -0.25000003 0.4911873 0 0
-1.4859103 -0.25000003 0.4911873 1 0
-1.4859103 -0.25 0.12759894 0.90909094 0
-1.7932453 -0.25 0.12759894 0.8181818 0
-1.7932453 -0.25000003 0.4911873 0.72727275 0
-2.0594194 -0.25000003 0.4911873 0.6363636 0
-2.0594194 -0.24999999 -0.4884433 0.54545456 0
-1.7932453 -0.24999999 -0.4884433 0.45454547 0
-1.7932453 -0.25 -0.089182094 0.36363637 0
-1.4859103 -0.25 -0.089182094 0.27272728 0
-1.4859103 -0.24999999 -0.4884433 0.18181819 0
1.8119725 -0.24999999 -0.47891536 0.9825919 1
1.8923129 0.25000003 -0.50914127 0.8994986 0
1.9477314 -0.24999999 -0.50564796 0.8355143 1
0.2810806 0.25 -0.22516304 0.22408798 0
0.24860762 -0.25 -0.16759643 0.20481488 1
0.32287097 -0.24999999 -0.25939885 0.24048254 1
0.14629392 0.24999999 0.4318962 0.7700647 0
0.061384022 -0.25000003 0.3563368 0.7448176 1
0.2619066 -0.25000003 0.4859681 0.7975247 1
1.8821348 -0.24999999 -0.2486455 0.3386882 1
1.7979468 0.25 -0.28254867 0.231402 0
1.794494 -0.24999999 -0.29213905 0.21984783 1
1.7707647 -0.24999999 -0.39020982 0.111353815 1
-0.054451834 -0.25 0.058844976 0.67699254 1
-0.03905784 0.25 -0.15668407 0.6338212 0
0.0074611283 -0.24999999 -0.2917729 0.6031038 1
0.22796871 0.25 -0.09042554 0.18447798 0
0.22058304 -0.25 0.02185142 0.1597113 1
0.5011597 -0.24999999 -0.28880504 0.30311328 1
0.40412492 0.25 -0.2877267 0.26702857 0
1.9256092 0.25 -0.24729156 0.38856742 0
2.024829 -0.24999999 -0.27832928 0.51236606 1
0.2622895 -0.25 0.19214286 0.116752386 1
0.32659107 0.24999999 0.2714797 0.085782796 0
0.35926986 -0.25 0.28256238 0.07538605 1
0.1374995 -0.24999999 -0.4343766 0.55808306 1
0.24913317 0.25000003 -0.49063852 0.5315142 0
0.3139418 -0.24999999 -0.4993218 0.51811165 1
2.0544302 0.25000003 -0.39022657 0.638672 0
2.0464356 -0.24999999 -0.43938836 0.6922822 1
0.059151415 0.25000003 -0.36602527 0.58242214 0
0.23004115 0.25 0.1032055 0.14124076 0
-0.016902797 0.24999999 0.22790675 0.71213484 0
1.7788534 0.25000003 -0.43929926 0.057980776 0
1.8119725 -0.24999999 -0.47891536 0.026136156 1
2.0201125 0.25000003 -0.471512 0.73936117 0
1.8042216 0.25 -0.1426913 0.989899 0
1.769921 0.24999999 0.4911873 1 0
2.0594194 0.24999999 0.4911873 0.969697 0
2.0251188 0.25 -0.1426913 0.97979796 0
2.0528867 -0.24999999 -0.37741402 0.6064453 0
2.048061 -0.24999999 -0.33333775 0.5643115 0
2.0280879 -0.24999999 -0.29063827 0.5106667 0
1.9863511 -0.24999999 -0.26254278 0.44968194 0
1.9390789 -0.24999999 -0.24916592 0.39169633 0
1.869044 -0.24999999 -0.2524553 0.31351513 0
1.8131304 -0.24999999 -0.27719074 0.24096918 0
1.7903335 -0.24999999 -0.3019274 0.20067349 0
1.777236 -0.24999999 -0.33334833 0.16294473 0
1.7723323 -0.24999999 -0.3774139 0.12082754 0
1.7772045 -0.24999999 -0.41894254 0.07968195 0
1.7979133 -0.24999999 -0.46130082 0.025325093 0
1.857778 -0.24999999 -0.4978615 0.91199195 0
1.9334153 -0.24999999 -0.50506544 0.82668036 0
1.9837201 -0.24999999 -0.49116918 0.76591957 0
2.027702 -0.24999999 -0.46132627 0.70203817 0
2.048092 -0.24999999 -0.4189533 0.6476082 0
1.431029 -0.25000003 0.4911873 0.9714286 0
1.1442744 -0.25 0.065857515 0.25714287 0
1.1442744 -0.25000003 0.4911873 0.22857143 0
0.8781003 -0.25000003 0.4911873 0.2 0
0.8781003 -0.24999999 -0.4884433 0.17142858 0
1.1442744 -0.24999999 -0.4884433 0.14285715 0
1.1442744 -0.25 -0.16052774 0.114285715 0
1.2224802 -0.25 -0.11387866 0.08571429 0
1.4159367 -0.24999999 -0.4884433 0.057142857 0
1.7150396 -0.24999999 -0.4884433 0.028571429 0
1.4118207 -0.25 0.05213715 0 0
1.7205276 -0.25000003 0.4911873 1 0
1.7772045 0.25000003 -0.41894254 0.07968195 0
1.7723323 0.25000003 -0.3774139 0.12082754 0
1.777236 0.25 -0.33334833 0.16294473 0
1.7903335 0.25 -0.3019274 0.20067349 0
1.8131304 0.25 -0.27719074 0.24096918 0
1.869044 0.25 -0.2524553 0.31351513 0
1.9390789 0.25 -0.2491659 0.39169633 0
1.9863511 0.25 -0.26254278 0.44968194 0
2.0280879 0.25 -0.29063827 0.5106667 0
2.048061 0.25 -0.33333775 0.5643115 0
2.0526679 0.25000003 -0.40163934 0.6301602 0
2.027702 0.25000003 -0.46132627 0.70203817 0
1.9837201 0.25000003 -0.49116918 0.76591957 0
1.9334153 0.25000003 -0.50506544 0.82668036 0
1.857778 0.25000003 -0.4978615 0.91199195 0
1.7979133 0.25000003 -0.46130082 0.025325093 0
-0.61604226 0.24999999 0.33340365 0.5487805 0
-0.79440635 0.24999999 0.49530342 0.07317073 0
-0.44179425 0.24999999 0.49530342 0.085365854 0
-0.7738259 -0.24999999 -0.30459103 0.036585364 0
-0.45551455 -0.24999999 -0.30459103 0.024390243 0
-0.5103958 -0.25 -0.08781006 0.09756097 0
-0.7189446 -0.25 -0.08781006 1 0
-0.6153834 -0.25 0.32988235 0.5543068 0
-1.1140897 -0.24999999 -0.4884433 0.06097561 0
-0.82321906 -0.24999999 -0.4884433 0.048780486 0
-0.11799474 -0.24999999 -0.4884433 0 0
-0.44179425 -0.25000003 0.49530342 0.085365854 0
-0.4074934 -0.24999999 -0.4884433 0.0121951215 0
1.1442744 0.25 -0.1605277 0.114285715 0
1.1442744 0.25000003 -0.4884433 0.14285715 0
0.8781003 0.25000003 -0.4884433 0.17142858 0
0.8781003 0.24999999 0.4911873 0.2 0
1.1442744 0.24999999 0.4911873 0.22857143 0
1.1442744 0.25 0.06585753 0.25714287 0
1.431029 0.24999999 0.4911873 0.9714286 0
1.7205276 0.24999999 0.4911873 1 0
1.4118207 0.25 0.052137174 0 0
1.7150396 0.25000003 -0.4884433 0.028571429 0
1.4159367 0.25000003 -0.4884433 0.057142857 0
1.2224802 0.25 -0.113878645 0.08571429 0
-0.79440635 -0.25000003 0.49530342 0.07317073 0
2.0594194 -0.25000003 0.4911873 0.969697 0
1.769921 -0.25000003 0.4911873 1 0
1.8042216 -0.25 -0.14269133 0.989899 0
2.0251188 -0.25 -0.14269133 0.97979796 0
0.52110106 0.25 -0.2790194 0.31222728 0
0.6873879 0.25 -0.22364117 0.38709676 0
0.6873879 0.25000003 -0.44728234 0.39170507 0
0.59988266 0.25000003 -0.47868663 0.42857143 0
0.5087188 0.25000003 -0.4963706 0.4654378 0
0.4102375 0.25000003 -0.50216365 0.50230414 0
0.3105365 0.25000003 -0.495151 0.52073735 0
0.24277435 0.25000003 -0.4808289 0.5348908 0
0.16709238 0.25000003 -0.4498457 0.5529058 0
0.10159521 0.25000003 -0.4045634 0.5715076 0
0.037315153 0.25 -0.33404258 0.5942422 0
-1.5497207e-08 0.25 -0.26274407 0.61290324 0
-0.02667841 0.25 -0.1833949 0.6313364 0
-0.04268544 0.25 -0.09627091 0.6497696 0
-0.048021127 0.25 -0.0013720498 0.66820276 0
-0.041923206 0.25 0.09360303 0.686636 0
-0.02362945 0.24999999 0.18095574 0.7050691 0
0.022459444 0.24999999 0.29336327 0.73156637 0
0.10450859 0.24999999 0.39429682 0.7611358 0
0.20145045 0.24999999 0.4587565 0.7872527 0
0.28481346 0.24999999 0.48886943 0.8062054 0
0.35342672 0.24999999 0.5008344 0.8202765 0
0.48594788 0.24999999 0.50351316 0.8563822 0
0.6280856 0.24999999 0.47533268 0.9078341 0
0.7299208 0.24999999 0.43630603 0.9447005 0
0.64897096 0.24999999 0.22775723 0.94930875 0
0.5419623 0.24999999 0.27148342 0.35402417 0
0.46435654 0.24999999 0.28622106 0.03686636 0
0.39036965 0.24999999 0.286824 0.065729424 0
0.3229799 0.24999999 0.25941086 0.0895357 0
0.2771781 0.24999999 0.21228233 0.11029225 0
0.23967987 0.25 0.13488622 0.1340467 0
0.2240128 0.25 0.019703895 0.16129032 0
0.2311885 0.25 -0.10536093 0.18881795 0
0.2609055 0.25 -0.18882376 0.21240804 0
0.30162323 0.25 -0.24146117 0.2329599 0
0.35715988 0.25 -0.27311027 0.25310603 0
0.41882446 0.25 -0.28520983 0.27112627 0
-1.7932453 0.25 0.12759897 0.8181818 0
-1.4859103 0.25 0.12759897 0.90909094 0
-1.4859103 0.24999999 0.4911873 1 0
-1.2197361 0.24999999 0.4911873 0 0
-1.2197361 0.25000003 -0.4884433 0.09090909 0
-1.4859103 0.25000003 -0.4884433 0.18181819 0
-1.4859103 0.25 -0.08918208 0.27272728 0
-1.7932453 0.25 -0.08918208 0.36363637 0
-1.7932453 0.25000003 -0.4884433 0.45454547 0
-2.0594194 0.25000003 -0.4884433 0.54545456 0
-2.0594194 0.24999999 0.4911873 0.6363636 0
-1.7932453 0.24999999 0.4911873 0.72727275 0
-1.2197361 0.24999999 0.4911873 0 0
-1.2197361 -0.25000003 0.4911873 0 1
-1.2197361 -0.24999999 -0.4884433 0.083333336 1
-1.2197361 0.25000003 -0.4884433 0.083333336 0
0.59988266 -0.24999999 -0.47868663 0.42857143 0
0.6873879 -0.24999999 -0.44728234 0.39170507 0
0.6873879 -0.24999999 -0.2236412 0.38709676 0
0.52110106 -0.24999999 -0.2790194 0.31222728 0
0.41882446 -0.24999999 -0.28520983 0.27112627 0
0.35715988 -0.24999999 -0.27311027 0.25310603 0
0.30162323 -0.24999999 -0.2414612 0.2329599 0
0.2609055 -0.24999999 -0.18882379 0.21240804 0
0.2311885 -0.25 -0.10536095 0.18881795 0
0.2240128 -0.25 0.019703873 0.16129032 0
0.23967987 -0.25 0.13488619 0.1340467 0
0.2771781 -0.25 0.2122823 0.11029225 0
0.3229799 -0.25 0.25941086 0.0895357 0
0.39036965 -0.25 0.286824 0.065729424 0
0.46435654 -0.25 0.28622106 0.03686636 0
0.5419623 -0.25 0.27148342 0.35402417 0
0.64897096 -0.25 0.2277572 0.94930875 0
0.7299208 -0.25000003 0.43630603 0.9447005 0
0.6280856 -0.25000003 0.47533268 0.9078341 0
0.48594788 -0.25000003 0.50351316 0.8563822 0
0.35342672 -0.25000003 0.5008344 0.8202765 0
0.28481346 -0.25000003 0.48886943 0.8062054 0
0.20145045 -0.25000003 0.4587565 0.7872527 0
0.10450859 -0.25000003 0.39429682 0.7611358 0
0.022459444 -0.25 0.29336327 0.73156637 0
-0.02362945 -0.25 0.18095571 0.7050691 0
-0.041923206 -0.25 0.093603015 0.686636 0
-0.048021127 -0.25 -0.0013720717 0.66820276 0
-0.04268544 -0.25 -0.09627093 0.6497696 0
-0.02667841 -0.24999999 -0.18339492 0.6313364 0
-1.5497207e-08 -0.24999999 -0.26274407 0.61290324 0
0.037315153 -0.24999999 -0.33404258 0.5942422 0
0.10159521 -0.24999999 -0.4045634 0.5715076 0
0.16709237 -0.24999999 -0.4498457 0.5529058 0
0.24277435 -0.24999999 -0.4808289 0.5348908 0
0.3105365 -0.24999999 -0.495151 0.52073735 0
0.4102375 -0.24999999 -0.50216365 0.50230414 0
0.5087188 -0.24999999 -0.4963706 0.4654378 0
-1.4859103 -0.24999999 -0.4884433 0.16666667 1
-1.4859103 0.25000003 -0.4884433 0.16666667 0
-1.4859103 -0.25 -0.089182094 0.25 1
-1.4859103 0.25 -0.08918208 0.25 0
-1.7932453 -0.25 -0.089182094 0.33333334 1
-1.7932453 0.25 -0.08918208 0.33333334 0
-1.7932453 -0.24999999 -0.4884433 0.41666666 1
-1.7932453 0.25000003 -0.4884433 0.41666666 0
-2.0594194 -0.24999999 -0.4884433 0.5 1
-2.0594194 0.25000003 -0.4884433 0.5 0
-2.0594194 -0.25000003 0.4911873 0.5833333 1
-2.0594194 0.24999999 0.4911873 0.5833333 0
-1.7932453 -0.25000003 0.4911873 0.6666667 1
-1.7932453 0.24999999 0.4911873 0.6666667 0
-1.7932453 -0.25 0.12759894 0.75 1
-1.7932453 0.25 0.12759897 0.75 0
-1.4859103 -0.25 0.12759894 0.8333333 1
-1.4859103 0.25 0.12759897 0.8333333 0
-1.4859103 -0.25000003 0.4911873 0.9166667 1
-1.4859103 0.24999999 0.4911873 0.9166667 0
-1.2197361 -0.25000003 0.4911873 1 1
-1.2197361 0.24999999 0.4911873 1 0
-0.11799474 0.25000003 -0.4884433 0 0
-0.11799474 -0.24999999 -0.4884433 0 1
-0.4074934 -0.24999999 -0.4884433 0.125 1
-0.4074934 0.25000003 -0.4884433 0.125 0
-0.45551455 -0.24999999 -0.30459103 0.25 1
-0.45551455 0.25 -0.30459103 0.25 0
-0.7738259 -0.24999999 -0.30459103 0.375 1
-0.7738259 0.25 -0.30459103 0.375 0
-0.82321906 -0.24999999 -0.4884433 0.5 1
-0.82321906 0.25000003 -0.4884433 0.5 0
-1.1140897 -0.24999999 -0.4884433 0.625 1
-1.1140897 0.25000003 -0.4884433 0.625 0
-0.79440635 -0.25000003 0.49530342 0.75 1
-0.79440635 0.24999999 0.49530342 0.75 0
-0.44179425 -0.25000003 0.49530342 0.875 1
-0.44179425 0.24999999 0.49530342 0.875 0
-0.11799474 -0.24999999 -0.4884433 1 1
-0.11799474 0.25000003 -0.4884433 1 0
-0.7175834 0.25 -0.08776305 0.986635 0
-0.71785223 -0.25 -0.0877306 0.986638 1
-0.5103958 -0.25 -0.08781006 1 1
-0.5103958 0.25 -0.08781005 1 0
-0.6162951 0.24999999 0.32808438 0.49013773 0
-0.5103958 0.25 -0.08781005 0 0
-0.5103958 -0.25 -0.08781006 0 1
-0.6163231 -0.25 0.32692844 0.49018252 1
0.5247657 0.24999999 0.2776583 0.3503103 0
0.6412747 -0.25 0.24003682 0.8833231 1
0.6678095 0.25000003 -0.46560544 0.39959022 0
0.67867875 -0.24999999 -0.46198368 0.3949253 1
0.68342674 0.25 -0.22968183 0.38286993 0
0.6873817 -0.24999999 -0.22375555 0.3853008 1
2.0256388 0.25 -0.28402552 0.5182298 0
0.31830826 0.24999999 0.49725378 0.8094428 0
0.5529957 -0.25000003 0.4968346 0.87617135 1
0.550314 0.24999999 0.4965538 0.87538064 0
0.7302144 0.24999999 0.43737838 0.9403117 0
0.7300444 -0.25000003 0.43686247 0.9403286 1
0.64897096 0.24999999 0.22775723 0.94495416 0
1.7788534 0.25000003 -0.43929926 1 0
1.4118207 0.25 0.052137174 0 0
1.4118207 -0.25 0.05213715 0 1
1.7150396 -0.24999999 -0.4884433 0.027777778 1
1.7150396 0.25000003 -0.4884433 0.027777778 0
1.4159367 -0.24999999 -0.4884433 0.055555556 1
1.4159367 0.25000003 -0.4884433 0.055555556 0
1.2224802 -0.25 -0.11387866 0.083333336 1
1.2224802 0.25 -0.113878645 0.083333336 0
1.1442744 -0.25 -0.16052774 0.11111111 1
1.1442744 0.25 -0.1605277 0.11111111 0
1.1442744 -0.24999999 -0.4884433 0.1388889 1
1.1442744 0.25000003 -0.4884433 0.1388889 0
0.8781003 -0.24999999 -0.4884433 0.16666667 1
0.8781003 0.25000003 -0.4884433 0.16666667 0
0.8781003 -0.25000003 0.4911873 0.19444445 1
0.8781003 0.24999999 0.4911873 0.19444445 0
1.1442744 -0.25000003 0.4911873 0.22222222 1
1.1442744 0.24999999 0.4911873 0.22222222 0
1.1442744 -0.25 0.065857515 0.25 1
1.1442744 0.25 0.06585753 0.25 0
1.431029 -0.25000003 0.4911873 0.9444444 1
1.431029 0.24999999 0.4911873 0.9444444 0
1.7205276 -0.25000003 0.4911873 0.9722222 1
1.7205276 0.24999999 0.4911873 0.9722222 0
1.4118207 -0.25 0.05213715 1 1
1.4118207 0.25 0.052137174 1 0
2.0594194 0.24999999 0.4911873 0 0
2.0594194 -0.25000003 0.4911873 0 1
2.0251188 -0.25 -0.14269133 0.25 1
2.0251188 0.25 -0.1426913 0.25 0
1.8042216 -0.25 -0.14269133 0.5 1
1.8042216 0.25 -0.1426913 0.5 0
1.769921 -0.25000003 0.4911873 0.75 1
1.769921 0.24999999 0.4911873 0.75 0
2.0594194 -0.25000003 0.4911873 1 1
2.0594194 0.24999999 0.4911873 1 0
8 0 1 2 3 4 5 6 7
12 8 9 10 11 12 13 14 15 16 17 18 19
3 20 21 22
3 23 24 25
3 26 27 28
3 29 30 31
3 31 30 32
3 33 34 35
3 36 37 24
3 38 39 25
3 40 29 41
3 42 43 44
3 45 46 47
3 48 41 49
3 35 50 45
3 37 51 42
3 52 33 27
3 53 54 32
3 22 55 49
4 56 57 58 59
17 60 61 62 63 64 65 66 67 68 69 70 71 72 73 74 75 76
12 77 78 79 80 81 82 83 84 85 86 87 88
16 89 90 91 92 93 94 95 96 97 98 99 100 101 102 103 104
7 2 105 1 0 106 107 3
7 108 109 110 111 112 113 114
6 115 116 112 110 109 117
12 118 119 120 121 122 123 124 125 126 127 128 129
3 112 116 130
3 130 113 112
4 131 132 133 134
38 135 136 137 138 139 140 141 142 143 144 145 146 147 148 149 150 151 152 153 154 155 156 157 158 159 160 161 162 163 164 165 166 167 168 169 170 171 172
12 173 174 175 176 177 178 179 180 181 182 183 184
4 185 186 187 188
38 189 190 191 192 193 194 195 196 197 198 199 200 201 202 203 204 205 206 207 208 209 210 211 212 213 214 215 216 217 218 219 220 221 222 223 224 225 226
4 188 187 227 228
4 228 227 229 230
4 230 229 231 232
4 232 231 233 234
4 234 233 235 236
4 236 235 237 238
4 238 237 239 240
4 240 239 241 242
4 242 241 243 244
4 244 243 245 246
4 246 245 247 248
4 249 250 251 252
4 252 251 253 254
4 254 253 255 256
4 256 255 257 258
4 258 257 259 260
4 260 259 261 262
4 262 261 263 264
4 264 263 265 266
4 267 268 269 270
4 271 272 273 274
4 275 276 44 43
4 277 278 47 46
3 55 48 49
3 52 34 33
3 45 50 46
4 279 280 278 277
3 36 51 37
3 41 48 281
3 23 36 24
3 34 50 35
4 282 28 283 284
3 38 279 39
3 281 40 41
4 285 286 276 287
3 20 288 21
3 29 40 30
3 28 282 26
3 275 287 276
4 289 290 291 292
4 292 291 293 294
4 294 293 295 296
4 296 295 297 298
4 298 297 299 300
4 300 299 301 302
4 302 301 303 304
4 304 303 305 306
4 306 305 307 308
4 308 307 309 310
4 283 286 285 284
4 310 309 311 312
4 312 311 313 314
4 315 316 317 318
4 318 317 319 320
4 320 319 321 322
4 322 321 323 324
4 267 271 274 268
3 42 51 43
3 25 39 23
3 21 55 22
3 30 53 32
3 38 280 279
3 27 26 52
